<svg xmlns="http://www.w3.org/2000/svg" viewBox="12 12 236 236" width="236" height="236" role="img" aria-label="Refugio">
  <g fill="none" stroke="#14181B" stroke-width="7" stroke-linecap="round" stroke-linejoin="round">
    <rect x="16" y="16" width="228" height="228" rx="60"/>
    <circle cx="72" cy="75" r="17"/>
    <path d="M48 202 L48 122 A24 24 0 0 1 96 122"/>
    <circle cx="188" cy="75" r="17"/>
    <path d="M212 202 L212 122 A24 24 0 0 0 164 122"/>
    <circle cx="110" cy="126" r="12"/>
    <path d="M96 202 L96 157 A14 14 0 0 1 124 157 L124 202"/>
    <circle cx="150" cy="126" r="12"/>
    <path d="M164 202 L164 157 A14 14 0 0 0 136 157 L136 202"/>
  </g>
</svg>
